<?xml version="1.0" standalone="no"?>
<!DOCTYPE svg PUBLIC "-//W3C//DTD SVG 20010904//EN"
 "http://www.w3.org/TR/2001/REC-SVG-20010904/DTD/svg10.dtd">
<svg version="1.0" xmlns="http://www.w3.org/2000/svg"
 width="512.000000pt" height="512.000000pt" viewBox="0 0 512.000000 512.000000"
 preserveAspectRatio="xMidYMid meet">
<metadata>
Created by potrace 1.11, written by Peter Selinger 2001-2013
</metadata>
<g transform="translate(0.000000,512.000000) scale(0.100000,-0.100000)"
fill="#000000" stroke="none">
<path d="M0 2560 l0 -2560 2560 0 2560 0 0 2560 0 2560 -2560 0 -2560 0 0
-2560z m1250 1980 c0 -85 -1 -90 -21 -90 -11 0 -19 -3 -17 -7 43 -84 50 -109
45 -158 -10 -99 -60 -165 -161 -211 -52 -23 -67 -26 -140 -22 -95 5 -145 27
-199 87 -65 72 -88 162 -63 246 9 27 13 51 11 53 -2 2 -53 4 -113 3 -85 -2
-111 1 -115 12 -4 11 -3 132 2 170 1 4 174 7 386 7 l385 0 0 -90z m1270 -558
c0 -357 3 -652 6 -655 4 -4 19 2 33 12 167 118 488 186 755 161 363 -33 647
-157 884 -385 243 -232 381 -502 443 -862 19 -112 21 -153 16 -328 -4 -146
-11 -227 -26 -299 -97 -468 -377 -848 -770 -1046 -110 -55 -205 -86 -332 -111
-158 -30 -387 -24 -534 14 -129 34 -297 118 -400 201 l-80 64 -3 -129 -3 -129
-484 0 -485 0 0 2070 0 2070 490 0 490 0 0 -648z m-1640 24 c0 -87 41 -106
230 -106 l140 0 0 -90 0 -90 -280 0 -280 0 0 90 c0 89 0 90 25 90 l24 0 -24
36 c-14 20 -25 50 -25 65 l0 29 95 0 c94 0 95 0 95 -24z m370 -440 c0 -57 -4
-96 -10 -98 -7 -2 -5 -18 6 -43 20 -48 15 -145 -10 -193 -25 -49 -75 -101
-120 -125 -34 -18 -57 -22 -141 -22 -106 0 -156 16 -213 69 -69 62 -98 201
-58 275 16 31 17 35 2 43 -13 7 -16 26 -16 92 0 45 3 86 7 89 3 4 129 7 280 7
l273 0 0 -94z m-185 -545 c74 -26 125 -68 161 -133 25 -46 29 -63 29 -133 0
-70 -4 -87 -30 -134 -73 -133 -245 -186 -382 -120 -160 78 -210 271 -108 419
33 47 75 78 139 101 66 24 123 24 191 0z m18 -605 c55 -20 111 -62 141 -105
50 -71 52 -189 5 -253 l-20 -28 26 0 c25 0 25 0 25 -90 l0 -90 -390 0 -390 0
0 90 0 90 121 0 c121 0 121 0 114 23 -24 77 -29 119 -16 165 26 100 84 164
178 198 49 17 157 17 206 0z m175 -718 l-3 -93 -385 0 -385 0 -3 93 -3 92 391
0 391 0 -3 -92z m2 -248 l0 -90 -390 0 -390 0 0 90 0 90 390 0 390 0 0 -90z
m-637 -160 c58 -46 51 -142 -12 -174 -50 -26 -88 -21 -127 18 -47 47 -47 95 0
142 41 41 97 47 139 14z m635 -82 l-3 -93 -275 0 -275 0 -3 93 -3 92 281 0
281 0 -3 -92z m-144 -167 c95 -47 148 -127 149 -227 1 -46 -5 -70 -21 -98 -27
-45 -27 -46 -2 -46 19 0 20 -7 20 -90 l0 -90 -390 0 -390 0 0 90 0 90 120 0
c66 0 120 2 120 4 0 2 -7 23 -15 46 -19 54 -19 93 1 161 21 70 100 151 171
173 67 22 177 16 237 -13z"/>
<path d="M914 4422 c-50 -40 -58 -104 -19 -150 67 -80 200 -18 181 84 -14 69
-110 109 -162 66z"/>
<path d="M3020 2523 c-108 -16 -226 -72 -306 -145 -235 -215 -244 -584 -21
-810 108 -109 250 -168 407 -168 163 0 297 57 407 174 80 84 125 169 147 278
20 95 20 133 1 223 -34 163 -152 318 -297 389 -107 53 -235 75 -338 59z"/>
<path d="M914 3441 c-66 -40 -63 -140 5 -175 38 -20 64 -20 101 -1 37 19 50
43 50 90 0 47 -13 71 -50 90 -39 20 -69 19 -106 -4z"/>
<path d="M900 2833 c-22 -20 -33 -40 -37 -69 -4 -35 -1 -46 23 -73 21 -23 41
-34 71 -38 39 -5 46 -2 78 30 28 28 35 43 35 75 0 33 -6 45 -35 71 -47 41 -93
42 -135 4z"/>
<path d="M906 2209 c-58 -69 -15 -169 73 -169 92 0 139 109 75 174 -21 21 -36
26 -74 26 -42 0 -52 -4 -74 -31z"/>
<path d="M909 851 c-80 -81 13 -214 116 -165 19 9 40 30 49 49 49 103 -84 196
-165 116z"/>
</g>
</svg>
